<?xml version="1.0" standalone="no"?>
<!DOCTYPE svg PUBLIC "-//W3C//DTD SVG 20010904//EN"
 "http://www.w3.org/TR/2001/REC-SVG-20010904/DTD/svg10.dtd">
<svg version="1.0" xmlns="http://www.w3.org/2000/svg"
 width="920.000000pt" height="596.000000pt" viewBox="0 0 920.000000 596.000000"
 preserveAspectRatio="xMidYMid meet">

<g transform="translate(0.000000,596.000000) scale(0.100000,-0.100000)"
fill="#000000" stroke="none">
<path d="M2895 5082 c-327 -97 -547 -180 -725 -273 -167 -88 -318 -179 -355
-215 -18 -18 -42 -35 -54 -39 -48 -15 -238 -185 -285 -255 -20 -30 -21 -60 -2
-60 8 0 17 -7 20 -16 3 -9 6 -163 6 -343 l0 -327 -30 -29 c-45 -43 -54 -87
-28 -147 19 -45 20 -62 16 -295 -4 -273 3 -244 -78 -296 -26 -17 -36 -31 -38
-55 -2 -22 1 -32 11 -32 20 0 27 -83 27 -321 0 -130 -4 -199 -11 -201 -13 -4
-15 -123 -5 -246 8 -83 11 -94 30 -102 42 -16 48 -34 50 -159 l2 -119 -69 -34
c-151 -72 -189 -155 -110 -234 175 -175 939 -321 2063 -394 832 -54 2030 -45
2825 21 66 5 149 12 185 15 36 3 81 7 100 9 74 8 137 15 190 20 181 19 455 60
640 96 443 86 679 185 706 296 15 58 -60 137 -174 184 l-53 22 5 601 c3 330 8
651 11 712 l6 111 -63 48 c-130 99 -401 208 -687 276 -375 90 -928 153 -1606
184 -71 3 -165 8 -207 11 l-78 6 -10 -28 c-5 -16 -16 -40 -25 -54 -32 -53 -46
-94 -53 -148 l-7 -57 -211 -3 -210 -2 -24 25 c-23 24 -27 25 -162 25 l-139 0
-79 45 -79 45 -113 0 -113 0 -64 193 c-41 124 -72 201 -87 218 -20 21 -24 36
-24 87 0 48 3 62 15 62 10 0 15 10 15 30 0 18 -6 33 -15 36 -8 4 -15 17 -15
30 0 14 7 27 15 30 8 4 15 18 15 34 0 16 -7 30 -15 34 -12 4 -15 23 -15 83 l0
78 -60 39 -60 38 -94 -7 c-82 -6 -94 -5 -100 10 -3 9 -47 134 -97 278 -50 144
-95 266 -100 271 -5 6 -27 11 -49 12 -30 2 -55 13 -96 44 -31 23 -58 40 -60
37 -2 -2 14 -17 37 -33 40 -28 41 -29 18 -35 -13 -4 -34 -7 -47 -8 -21 -1 -23
3 -21 49 2 28 3 50 5 50 20 0 96 -38 130 -66 24 -20 47 -35 50 -32 2 3 -16 20
-40 39 -37 27 -45 40 -46 65 0 37 -8 44 -75 70 l-50 20 -80 -24z m72 -47 c-3
-7 -30 -16 -59 -20 -70 -9 -369 -104 -511 -161 -323 -131 -737 -395 -873 -558
-38 -45 -64 -53 -42 -13 35 65 247 253 297 263 15 3 31 15 36 26 13 27 232
160 410 248 157 78 340 148 579 220 153 46 161 47 164 28 2 -10 1 -25 -1 -33z
m111 -10 c3 -21 0 -26 -11 -22 -9 3 -32 9 -51 13 -33 6 -36 9 -36 40 l0 34 48
-19 c38 -15 48 -24 50 -46z m-98 -105 c0 -11 -4 -20 -9 -20 -5 0 -16 -3 -24
-6 -10 -3 -17 3 -21 20 -3 13 -17 38 -31 54 l-26 31 23 4 c28 4 88 -52 88 -83z
m-192 27 c23 -24 41 -87 26 -87 -5 0 -19 -3 -31 -6 -18 -5 -23 -2 -23 12 0 11
-9 34 -20 52 -11 18 -20 34 -20 37 0 3 18 9 41 14 3 0 15 -9 27 -22z m118 -13
c17 -41 13 -49 -33 -57 l-33 -6 0 49 c0 47 2 50 26 50 19 0 28 -8 40 -36z
m-171 -34 c22 -43 19 -57 -16 -64 -42 -8 -49 -2 -49 44 0 56 40 69 65 20z
m-102 -4 c9 -13 19 -36 23 -50 5 -22 2 -27 -21 -36 -35 -13 -35 -13 -35 13 0
12 -9 36 -20 54 -17 29 -18 32 -2 36 33 9 40 7 55 -17z m572 -273 c54 -159
100 -293 102 -299 3 -7 -44 -19 -134 -33 -76 -12 -141 -21 -144 -21 -4 0 -9
14 -12 30 -5 21 -12 30 -27 30 -21 0 -27 -14 -10 -25 6 -3 10 -51 10 -109 0
-99 -1 -104 -22 -110 -54 -14 -54 -16 -46 116 3 68 7 248 7 400 l1 277 58 11
c31 6 62 13 67 15 6 2 20 4 31 4 19 1 32 -30 119 -286z m-32 266 l42 -10 97
-277 96 -277 -41 -6 c-23 -4 -43 -6 -44 -5 -6 5 -201 586 -197 586 3 0 24 -5
47 -11z m-590 -60 c2 -28 -2 -35 -20 -37 -21 -3 -23 1 -23 36 0 65 40 65 43 1z
m326 -546 l-11 -42 -162 -38 -161 -39 -8 28 c-4 15 -12 30 -17 33 -6 4 -10
109 -10 275 l0 268 68 23 c37 12 121 37 187 54 l120 32 3 -276 c2 -186 -1
-290 -9 -318z m-404 564 c24 -37 23 -68 -2 -78 -18 -7 -23 -5 -23 9 0 9 -9 31
-19 49 -14 23 -16 33 -8 37 24 9 37 5 52 -17z m-45 -48 c12 -28 12 -33 -5 -45
-29 -22 -35 -17 -35 29 0 67 17 73 40 16z m-60 -25 c13 -39 14 -39 -17 -48
-19 -6 -23 -4 -23 16 0 13 -7 33 -15 44 -19 25 -19 32 3 36 24 6 39 -8 52 -48z
m-54 -20 c6 -34 -4 -53 -28 -54 -10 0 -11 74 -1 83 14 14 22 6 29 -29z m-70
15 c4 -6 10 -26 14 -45 6 -25 4 -34 -8 -39 -8 -3 -16 -4 -17 -3 0 2 -8 22 -17
45 -12 30 -13 43 -4 47 18 7 24 7 32 -5z m254 -280 c-1 -191 2 -285 9 -292 6
-6 11 -50 11 -103 0 -84 -2 -93 -20 -98 -11 -3 -29 -9 -41 -12 -21 -6 -21 -4
-14 108 4 62 8 236 9 387 1 291 -1 280 44 290 2 1 2 -126 2 -280z m-344 216
c19 -46 18 -62 -6 -68 -16 -4 -21 1 -26 29 -3 19 -11 37 -16 40 -5 3 -1 12 9
20 24 18 22 19 39 -21z m54 23 c0 -7 3 -23 6 -35 4 -15 0 -24 -15 -32 -20 -11
-21 -9 -21 34 0 33 4 45 15 45 8 0 15 -6 15 -12z m230 -92 c0 -57 2 -119 5
-137 5 -29 4 -30 -4 -11 -11 24 -14 25 -60 16 -36 -7 -39 -23 -12 -48 14 -13
28 -16 48 -12 l28 7 -6 -148 c-4 -82 -7 -153 -8 -160 0 -6 -51 -28 -112 -48
-106 -36 -111 -36 -124 -19 -19 26 -21 292 -2 291 39 -1 47 4 47 32 0 30 -19
45 -45 35 -13 -5 -15 10 -15 100 l0 107 48 21 c84 37 187 77 200 77 9 1 12
-26 12 -103z m-326 18 c5 -24 3 -33 -8 -37 -13 -5 -16 2 -16 40 0 51 13 49 24
-3z m-57 14 c10 -12 24 -68 17 -68 -1 0 -9 -3 -18 -6 -11 -4 -16 0 -16 13 0
10 -7 28 -15 40 -12 16 -12 22 -2 26 20 8 24 8 34 -5z m-28 -76 c1 -15 -4 -22
-11 -20 -15 5 -22 43 -13 66 6 15 8 15 15 -3 5 -11 9 -30 9 -43z m-46 -12 c1
-19 -3 -35 -10 -37 -8 -3 -13 3 -13 14 0 11 -6 28 -14 39 -10 14 -11 22 -4 32
17 19 39 -7 41 -48z m187 -54 c0 -74 -4 -106 -12 -109 -10 -4 -10 -7 0 -18 8
-9 12 -55 12 -155 0 -105 -3 -143 -12 -147 -10 -3 -8 -9 5 -24 13 -15 17 -37
17 -95 0 -75 0 -76 -29 -86 l-29 -10 5 366 c6 354 8 381 36 382 4 0 7 -47 7
-104z m-50 -31 c0 -103 -2 -115 -17 -115 -20 -1 -74 -29 -58 -30 6 -1 -10 -7
-35 -13 -33 -9 -44 -17 -42 -29 2 -12 -4 -16 -18 -15 -19 1 -20 8 -20 107 l0
105 92 53 c51 28 94 52 95 52 2 0 3 -52 3 -115z m-170 58 c0 -12 -4 -25 -10
-28 -6 -4 -10 11 -10 37 0 31 3 39 10 28 5 -8 10 -25 10 -37z m-43 2 c16 -33
16 -36 0 -52 -16 -16 -17 -16 -17 2 0 11 -6 32 -14 47 -14 26 -12 38 6 38 5 0
16 -16 25 -35z m-72 -32 c13 -58 13 -63 5 -63 -5 0 -13 12 -18 28 -10 26 -10
25 -11 -15 -1 -48 2 -50 32 -25 18 13 22 26 20 62 -2 32 0 39 6 25 5 -11 9
-82 10 -157 1 -116 -1 -137 -13 -132 -8 3 -23 -3 -34 -14 -10 -10 -31 -22 -46
-26 -14 -3 -26 -13 -26 -22 0 -8 -4 -12 -10 -9 -6 3 -10 50 -10 106 l0 99 31
19 c29 18 31 23 34 83 3 72 2 68 15 68 5 0 12 -12 15 -27z m-62 -56 c5 -15 6
-35 2 -45 -6 -14 -9 -11 -15 13 -4 17 -11 38 -15 49 -6 14 -4 17 5 14 8 -2 18
-16 23 -31z m147 -82 c0 -63 -4 -105 -10 -105 -5 0 -10 -7 -10 -15 0 -8 5 -15
11 -15 7 0 10 -46 8 -145 -2 -79 0 -148 4 -151 4 -4 7 -40 7 -80 0 -70 -6 -84
-40 -84 -7 0 -2 662 5 688 3 6 9 12 15 12 6 0 10 -40 10 -105z m489 91 c9 -10
9 -16 1 -21 -12 -7 -40 11 -40 26 0 14 26 10 39 -5z m-659 -53 c0 -13 -4 -23
-10 -23 -5 0 -10 17 -10 38 0 27 3 33 10 22 5 -8 10 -25 10 -37z m-40 1 c6
-14 10 -32 10 -40 0 -22 -17 -16 -23 9 -2 12 -8 30 -12 40 -4 10 -3 17 4 17 6
0 16 -12 21 -26z m-20 -51 c0 -13 -4 -23 -10 -23 -5 0 -10 17 -10 38 0 27 3
33 10 22 5 -8 10 -25 10 -37z m524 31 c9 -23 8 -24 -13 -24 -22 0 -36 26 -18
34 20 8 25 7 31 -10z m-564 -30 c13 -34 13 -41 -6 -48 -8 -3 -13 -2 -11 2 3 4
1 16 -4 27 -6 16 -8 12 -8 -17 -1 -36 11 -49 24 -28 3 5 15 15 26 20 18 10 19
7 19 -92 l0 -104 -31 -11 c-27 -11 -30 -15 -19 -28 7 -8 21 -15 31 -15 18 0
19 -10 19 -134 l0 -134 -61 -36 c-33 -20 -63 -36 -65 -36 -3 0 -4 60 -3 134 0
74 -2 139 -6 145 -3 6 -1 11 4 11 6 0 11 -4 11 -10 0 -5 5 -10 10 -10 6 0 10
9 10 20 0 11 -7 20 -15 20 -12 0 -15 17 -15 96 0 93 1 96 29 120 20 16 27 30
24 44 -7 27 5 90 18 90 5 0 14 -12 19 -26z m67 -156 c-2 -29 -3 -8 -3 47 0 55
1 79 3 53 2 -26 2 -71 0 -100z m383 127 c10 -13 9 -15 -8 -15 -22 0 -36 13
-25 24 10 10 20 7 33 -9z m-508 -20 c9 -19 9 -28 0 -37 -9 -9 -12 -7 -13 8 -1
12 -4 8 -9 -11 -6 -25 -7 -23 -7 18 1 52 11 60 29 22z m508 -10 c19 6 20 3 20
-103 0 -60 -3 -129 -6 -153 l-6 -44 -76 -31 c-100 -41 -101 -39 -102 124 0
122 0 122 26 132 19 8 24 15 19 30 -6 20 9 28 20 10 10 -16 55 11 55 33 0 16
3 17 15 7 8 -6 23 -9 35 -5z m1532 -22 l58 -38 0 -68 c0 -38 -4 -67 -8 -65 -4
2 -29 12 -55 23 l-47 20 -2 75 -2 75 -3 -77 c-2 -43 -5 -78 -6 -79 -1 0 -38
-2 -82 -5 -74 -5 -353 -36 -452 -50 l-43 -7 0 82 c0 58 4 81 13 81 6 0 88 11
182 25 149 23 290 40 364 44 14 0 51 -16 83 -36z m-1612 12 c8 -9 8 -15 2 -15
-18 0 -42 12 -42 21 0 14 26 10 40 -6z m-480 -38 l-1 -32 -15 28 c-8 15 -12
32 -9 37 11 18 25 -1 25 -33z m411 -3 c12 -14 11 -16 -5 -13 -11 2 -21 10 -24
17 -5 17 13 15 29 -4z m-462 -36 c0 -28 -2 -30 -9 -13 -12 28 -12 45 0 45 6 0
10 -15 9 -32z m28 0 c-3 -8 -6 -5 -6 6 -1 11 2 17 5 13 3 -3 4 -12 1 -19z
m363 -144 c0 -164 -2 -170 -70 -204 -49 -25 -59 -27 -64 -14 -3 9 -6 72 -6
140 0 104 2 124 15 124 8 0 15 7 15 16 0 8 4 12 10 9 14 -8 50 13 50 29 0 9 8
12 23 9 20 -4 20 -3 4 7 -9 6 -15 16 -11 21 3 6 12 3 20 -8 9 -13 13 -51 14
-129z m992 67 l-3 -78 -157 -32 c-86 -17 -161 -31 -165 -31 -4 0 -7 32 -5 72
l3 71 155 38 c85 20 160 38 165 38 6 1 9 -29 7 -78z m-1335 -68 c-2 -27 -3 -5
-3 47 0 52 1 74 3 48 2 -27 2 -69 0 -95z m-17 23 c0 -95 -2 -104 -20 -109 -19
-5 -20 0 -20 86 0 70 4 95 17 109 9 10 18 18 20 18 1 0 3 -47 3 -104z m280 74
c13 -8 13 -10 -2 -10 -9 0 -20 5 -23 10 -8 13 5 13 25 0z m-55 -30 c3 -5 2
-10 -4 -10 -5 0 -13 5 -16 10 -3 6 -2 10 4 10 5 0 13 -4 16 -10z m1845 -25 c0
-14 -3 -25 -7 -25 -490 -26 -1044 -128 -1451 -266 -289 -98 -556 -231 -659
-329 -68 -65 -86 -61 -26 6 34 38 36 43 34 103 -2 50 1 65 13 69 13 5 16 -3
16 -46 0 -29 -5 -58 -12 -65 -23 -23 2 -12 49 22 120 85 375 204 632 296 310
110 907 225 1311 253 19 1 50 3 68 4 28 3 32 0 32 -22z m120 -55 c0 -17 -3
-17 -55 3 -47 19 -55 26 -55 49 l0 26 55 -30 c36 -19 55 -36 55 -48z m-1992
-62 l-2 -133 -5 120 c-6 112 -5 145 5 145 2 0 3 -60 2 -132z m710 41 l-3 -71
-110 -34 c-60 -18 -111 -33 -112 -34 -2 0 -3 30 -3 68 l0 67 108 37 c59 20
111 37 115 37 4 1 7 -31 5 -70z m-753 51 c3 -5 2 -10 -4 -10 -5 0 -13 5 -16
10 -3 6 -2 10 4 10 5 0 13 -4 16 -10z m1978 -37 c32 -14 37 -21 37 -49 l0 -33
-40 14 c-26 9 -63 13 -103 10 -286 -21 -360 -28 -487 -46 -336 -46 -804 -162
-1110 -274 -251 -92 -496 -228 -520 -288 l-9 -22 0 23 c-3 96 200 226 593 382
317 126 878 250 1306 290 217 20 276 19 333 -7z m-2116 -230 c-2 -37 -3 -9 -3
62 0 72 1 102 3 68 2 -34 2 -93 0 -130z m571 106 l-3 -62 -77 -33 -78 -32 0
63 0 62 73 31 c39 17 76 31 80 32 4 0 7 -28 5 -61z m1565 35 c47 -16 62 -39
30 -46 -28 -6 -82 13 -76 27 2 7 -1 16 -7 20 -7 4 -10 0 -8 -11 3 -17 -5 -19
-67 -22 -423 -15 -1009 -119 -1424 -254 -279 -90 -568 -222 -656 -300 l-35
-30 11 30 c15 42 102 100 282 187 177 85 313 134 599 215 338 96 618 150 968
184 195 19 327 19 383 0z m-2168 -4 c3 -5 1 -10 -4 -10 -6 0 -11 5 -11 10 0 6
2 10 4 10 3 0 8 -4 11 -10z m15 -99 c0 -105 -10 -169 -26 -175 -11 -4 -14 18
-14 122 0 121 1 128 20 129 18 2 20 -4 20 -76z m1950 44 c0 -8 -11 -22 -25
-31 l-25 -16 0 -273 c0 -230 -2 -274 -15 -285 -10 -8 -15 -30 -15 -61 l0 -49
-35 0 c-35 0 -35 0 -35 44 0 26 6 48 15 56 13 11 15 55 15 290 l0 277 -25 13
c-41 22 -29 35 32 38 32 2 59 4 60 5 1 2 13 3 27 5 17 1 26 -3 26 -13z m130
-23 c0 -36 -2 -38 -44 -51 -52 -15 -90 -52 -110 -106 l-15 -40 0 82 c-1 76 1
83 24 101 14 11 25 27 25 36 0 13 12 16 60 16 l60 0 0 -38z m83 21 c4 -2 7
-34 7 -70 0 -63 -1 -65 -22 -59 -13 3 -31 6 -40 6 -16 0 -18 10 -18 71 l0 71
33 -7 c17 -4 35 -9 40 -12z m-375 -31 l31 -29 0 -270 c1 -229 -1 -272 -14
-283 -9 -8 -15 -30 -15 -60 l0 -47 -160 -13 c-88 -7 -160 -17 -160 -21 0 -5 6
-7 13 -5 6 3 107 12 224 22 l212 18 -6 235 -6 236 31 68 c27 59 37 70 74 87
57 26 68 25 68 -5 0 -14 -4 -25 -10 -25 -5 0 -25 -14 -44 -30 -39 -35 -53 -74
-34 -98 10 -12 10 -16 1 -19 -10 -4 -12 -44 -11 -166 l2 -162 3 155 c3 122 7
158 19 171 14 16 14 18 -3 27 -17 10 -17 12 -1 46 24 49 62 73 92 57 19 -10
35 -51 88 -222 l65 -209 -46 -1 c-25 -1 -50 -2 -56 -4 -5 -1 -40 -3 -77 -3
-38 -1 -68 -6 -68 -11 0 -5 8 -8 18 -6 26 6 166 14 370 21 l182 7 0 -56 0 -57
-152 -1 c-84 0 -164 -2 -178 -4 -27 -4 -226 -14 -277 -15 -18 0 -33 -4 -33 -9
0 -5 8 -8 18 -6 36 8 174 15 408 21 l242 7 81 -38 c78 -37 81 -40 81 -72 0
-18 -2 -33 -4 -33 -2 0 -34 14 -72 31 l-69 32 -287 -7 c-524 -11 -1181 -68
-1593 -137 -327 -54 -659 -150 -844 -243 -40 -20 -74 -36 -77 -36 -2 0 -4 8
-4 19 0 41 205 135 450 205 251 72 536 127 950 181 63 9 126 17 140 20 14 2
44 4 67 4 l42 1 1 230 c0 244 3 264 51 332 60 84 218 91 277 12 12 -16 22 -24
22 -18 0 17 -66 73 -96 80 -14 4 -50 4 -80 2 -66 -6 -116 -42 -155 -111 l-25
-47 4 93 c4 83 7 95 33 127 28 33 34 36 122 46 140 17 142 17 175 -14z m-1438
-42 l0 -60 -56 -25 c-31 -14 -58 -25 -60 -25 -2 0 -4 24 -4 53 l0 52 58 32
c31 18 58 32 60 33 1 0 2 -27 2 -60z m1144 26 c-3 -8 -16 -22 -29 -30 l-24
-16 0 -272 c-1 -169 -5 -276 -11 -282 -5 -5 -10 -32 -10 -58 0 -46 -1 -48 -28
-48 -26 0 -27 2 -24 43 2 23 8 46 13 51 12 13 12 566 0 566 -5 0 -17 7 -25 16
-9 8 -16 11 -16 5 0 -6 9 -15 20 -21 18 -9 20 -21 20 -96 l0 -86 -25 31 c-32
37 -84 55 -137 47 -54 -9 -91 -37 -117 -88 l-21 -43 0 82 c0 70 3 84 19 92 10
6 21 21 25 35 5 22 15 26 98 41 51 9 127 22 168 29 102 19 110 19 104 2z
m-1290 -12 c3 -9 6 -44 6 -79 0 -47 -4 -64 -15 -69 -13 -4 -15 8 -15 79 0 79
10 107 24 69z m907 -62 c-5 -10 -17 -24 -25 -32 -14 -11 -16 -49 -16 -270 0
-217 -2 -260 -15 -270 -10 -8 -15 -30 -15 -61 0 -42 -3 -49 -20 -49 -17 0 -20
7 -20 39 0 22 6 44 15 51 13 10 15 54 15 275 l0 263 -30 12 c-16 7 -30 16 -30
20 0 8 100 37 133 39 14 1 16 -3 8 -17z m-941 -45 c0 -46 -3 -55 -22 -65 -13
-6 -42 -23 -66 -37 l-43 -27 3 53 c3 52 3 52 63 90 33 21 61 38 63 38 1 1 2
-23 2 -52z m825 -7 l24 -9 0 -254 c1 -192 -2 -257 -11 -265 -10 -8 -13 23 -13
149 -1 144 -2 161 -21 186 -46 62 -118 62 -169 1 -22 -26 -26 -40 -23 -75 2
-24 1 -43 -2 -43 -3 0 -5 -61 -5 -135 0 -113 2 -135 15 -135 14 0 113 14 173
25 27 5 28 4 25 -37 l-3 -41 -105 -18 c-58 -10 -111 -18 -117 -19 -10 0 -13
51 -13 222 0 205 2 225 21 265 41 84 148 105 217 41 12 -12 22 -17 22 -10 0
25 -64 56 -116 56 -59 0 -95 -19 -124 -67 l-20 -32 0 61 c0 41 5 65 14 74 8 6
16 21 18 33 3 18 17 25 88 42 69 17 87 18 93 7 5 -7 19 -17 32 -22z m1163 32
c13 -4 23 -11 22 -17 -1 -5 6 -12 15 -15 12 -4 37 -67 80 -198 34 -106 60
-192 56 -193 -3 -1 -21 -2 -40 -2 l-34 -2 -63 200 c-35 110 -64 201 -64 202 0
1 10 4 23 6 19 4 19 4 -5 6 -15 0 -30 6 -33 11 -7 11 8 11 43 2z m-2142 -167
c-9 -17 -12 -9 -14 45 -5 98 10 133 19 45 4 -46 3 -77 -5 -90z m754 105 c0
-11 -7 -23 -15 -26 -13 -5 -15 -44 -15 -265 0 -248 -1 -259 -20 -269 -15 -8
-20 -21 -20 -49 0 -25 -5 -41 -15 -45 -12 -4 -15 3 -15 33 0 22 6 44 15 51 13
10 15 52 15 262 0 241 -1 250 -20 255 -37 10 -23 38 28 55 62 21 62 21 62 -2z
m535 -14 c65 -28 75 -59 75 -247 0 -129 -3 -173 -15 -195 -8 -16 -15 -45 -15
-65 l0 -35 -113 -13 c-63 -6 -123 -15 -135 -18 l-22 -5 0 208 c0 115 5 225 10
245 31 110 122 163 215 125z m-655 -22 c0 -9 9 -18 20 -21 18 -5 20 -14 20
-81 l0 -75 -24 22 c-31 29 -103 39 -147 21 -17 -8 -40 -27 -50 -44 l-19 -31 0
48 c0 32 7 58 19 75 10 15 20 33 23 41 2 8 33 25 69 37 78 27 89 28 89 8z
m-170 -52 c0 -5 -9 -17 -20 -27 -19 -17 -20 -31 -20 -260 0 -207 -2 -244 -15
-249 -13 -5 -15 26 -15 238 0 235 -1 244 -20 249 -32 8 -23 24 23 40 49 18 67
20 67 9z m-95 -62 c12 0 15 -14 15 -61 l0 -60 -22 15 c-43 30 -114 17 -150
-28 -17 -21 -18 -21 -18 15 0 21 7 42 15 49 8 7 15 20 15 30 0 11 20 26 57 43
49 22 59 24 66 12 4 -8 15 -15 22 -15z m585 -32 c12 -23 13 -31 2 -48 -7 -12
-8 -20 -2 -20 6 0 10 -49 10 -130 l0 -129 -37 -6 c-21 -3 -46 -8 -55 -10 -16
-3 -18 8 -18 120 0 90 3 125 13 128 8 3 7 9 -5 18 -15 12 -16 20 -8 51 18 63
71 76 100 26z m-332 -2 c48 -25 53 -47 50 -220 -2 -110 -7 -161 -15 -163 -8
-3 -11 35 -10 144 1 123 -1 153 -15 180 -23 41 -65 51 -116 26 -31 -15 -39
-26 -48 -63 -6 -25 -9 -49 -7 -53 3 -5 4 -73 4 -153 l-2 -145 23 6 c150 34
158 34 158 -4 0 -28 -3 -30 -57 -41 -32 -6 -74 -16 -93 -21 -65 -17 -61 -30
-58 215 3 210 4 226 24 253 39 52 106 68 162 39z m-415 -13 c-3 -10 -10 -23
-14 -29 -5 -6 -10 -111 -11 -234 -2 -168 -6 -224 -15 -228 -10 -3 -13 45 -13
216 0 212 -1 221 -20 227 -31 10 -24 24 23 45 53 24 58 24 50 3z m-88 -49 c19
-12 25 -25 25 -53 l0 -37 -40 4 c-52 5 -86 -17 -111 -71 l-19 -42 0 43 c0 76
19 116 69 145 55 32 46 30 76 11z m3830 1 c366 -21 619 -41 875 -70 596 -68
1080 -209 1308 -380 l64 -48 -6 -96 c-3 -53 -8 -147 -12 -208 -6 -102 -8 -113
-25 -113 -17 0 -19 8 -19 90 0 83 -1 90 -20 90 -18 0 -20 -7 -20 -86 0 -80 -1
-85 -19 -79 -13 4 -24 -1 -35 -16 -14 -21 -16 -14 -18 97 -3 115 -4 119 -25
122 -23 3 -23 1 -24 -100 0 -57 -3 -97 -6 -90 -8 21 -51 14 -68 -12 -14 -21
-16 -57 -15 -220 l1 -196 -31 0 -30 0 0 -155 c0 -117 -3 -155 -12 -156 -10 0
-10 -2 0 -6 8 -3 12 -27 12 -71 l0 -66 -20 22 c-25 26 -57 28 -82 5 -17 -16
-18 -9 -18 205 l0 222 -40 0 -40 0 0 205 c0 225 -8 265 -54 287 -20 8 -32 8
-52 0 -46 -22 -54 -62 -54 -287 l0 -205 78 0 77 0 -3 -234 -3 -234 -24 24
c-31 31 -59 31 -90 0 l-25 -25 -2 232 -3 232 -45 0 -45 0 -3 -172 -2 -173 -53
-1 c-28 -1 -71 -2 -94 -3 l-43 -1 0 177 0 178 100 0 100 0 1 198 c1 236 1 238
-18 280 -28 59 -103 75 -149 31 -19 -18 -47 -86 -43 -106 1 -4 1 -97 0 -205
l-1 -198 -55 0 -55 0 0 -178 0 -179 -97 -6 c-54 -4 -119 -7 -145 -7 l-48 0 0
185 0 185 -65 0 -65 0 0 -187 0 -188 -70 -3 c-73 -3 -85 4 -54 35 13 13 14 39
8 184 l-7 169 67 0 67 0 -2 221 c0 121 1 222 4 225 9 9 -11 77 -30 103 -45 62
-166 90 -245 57 -61 -26 -110 -94 -106 -146 1 -8 0 -93 0 -187 l-2 -173 -60 0
-59 0 -3 168 c-2 92 -2 170 0 175 2 4 3 109 2 232 l-1 225 56 0 55 0 0 -150
c0 -82 4 -150 8 -150 5 0 17 10 28 21 31 35 94 59 158 59 78 0 128 -16 176
-57 l40 -35 0 141 c0 106 3 141 13 141 6 0 29 -3 50 -6 l37 -7 0 -123 0 -124
58 0 c31 0 101 -3 155 -7 l97 -6 0 114 0 114 45 -3 45 -4 0 -156 0 -156 29 31
c51 56 118 54 168 -5 l23 -27 0 132 c0 117 2 132 18 136 13 4 11 5 -5 6 -23 1
-23 -1 -23 -121 l0 -121 -26 24 c-35 32 -100 33 -143 1 l-31 -23 0 146 0 145
-32 0 c-18 0 -43 3 -55 6 -22 6 -23 4 -24 -62 0 -38 -3 -62 -6 -54 -20 54 -91
86 -166 74 -25 -4 -52 -19 -78 -43 l-39 -38 0 77 c0 87 -3 90 -82 90 l-38 0 0
-136 c0 -119 -2 -134 -15 -121 -40 41 -89 60 -160 65 -80 5 -133 -8 -180 -43
l-30 -22 3 143 c3 133 2 144 -15 144 -10 0 -42 3 -70 6 l-53 7 0 -196 0 -195
-34 34 c-20 20 -52 38 -80 46 -44 12 -47 15 -61 62 -17 57 -19 106 -5 106 6 0
10 14 10 30 0 17 -4 30 -10 30 -5 0 -10 11 -10 25 0 14 5 25 10 25 7 0 10 22
8 57 l-3 57 -60 12 c-33 7 -140 17 -239 23 -98 6 -181 12 -183 15 -13 13 20
140 47 183 17 26 30 55 30 65 0 23 24 23 385 3z m-3580 -25 c8 -7 15 -22 15
-33 0 -19 -1 -19 -18 -4 -26 23 -94 22 -123 -2 -23 -18 -24 -25 -27 -185 -2
-91 -2 -173 2 -181 5 -15 13 -13 114 19 22 7 23 5 20 -30 l-3 -37 -77 -22 -78
-23 0 215 c0 229 4 253 52 288 26 19 98 16 123 -5z m259 -2 c3 -13 4 -88 3
-168 l-2 -145 -32 -3 -33 -3 0 120 c0 69 4 122 10 126 6 3 7 17 4 30 -7 28 11
65 31 65 8 0 17 -10 19 -22z m-653 -57 c-7 -12 -11 -100 -11 -230 0 -178 -2
-211 -15 -211 -12 0 -15 34 -17 213 l-3 212 25 28 c26 29 39 22 21 -12z m408
-148 c3 -122 1 -138 -15 -150 -10 -7 -22 -13 -27 -13 -5 0 -8 53 -7 118 1 64
1 122 0 127 -4 19 2 50 13 63 23 28 32 -10 36 -145z m-255 131 c9 -3 16 -18
16 -32 0 -20 -3 -23 -12 -14 -20 20 -63 14 -89 -14 -23 -24 -24 -32 -27 -185
-2 -96 0 -159 6 -159 5 0 28 7 51 15 l42 15 -3 -36 c-3 -34 -7 -38 -62 -60
-33 -13 -63 -24 -68 -24 -4 0 -8 80 -8 177 0 141 3 187 17 223 30 82 80 116
137 94z m-204 -229 c0 -125 -4 -206 -10 -210 -7 -4 -10 68 -10 210 0 142 3
214 10 210 6 -4 10 -85 10 -210z m2725 153 c72 -41 75 -44 75 -80 0 -21 -3
-38 -7 -38 -5 0 -32 14 -62 30 -30 17 -62 30 -73 30 -15 0 -18 8 -18 50 0 28
2 50 5 50 3 0 39 -19 80 -42z m369 -67 l27 -29 387 -5 c253 -4 411 -11 457
-19 l70 -13 -5 -45 c-6 -58 -6 -121 0 -140 3 -10 0 -14 -10 -11 -8 2 -251 5
-540 6 -289 1 -427 0 -307 -2 l217 -3 0 -350 0 -350 -95 0 c-76 0 -95 3 -95
14 0 8 -8 17 -17 19 -10 3 3 5 30 6 l47 1 0 155 c0 117 -3 155 -12 155 -9 0
-9 3 1 9 12 8 13 16 3 48 -37 122 -133 166 -242 111 -67 -34 -89 -80 -89 -186
0 -47 -2 -86 -4 -88 -2 -2 -43 80 -90 183 -99 214 -110 263 -57 263 30 0 30 1
30 55 0 42 3 55 15 55 11 0 15 12 15 50 0 28 -4 50 -10 50 -5 0 -10 20 -10 45
l0 45 128 0 c128 0 128 0 156 -29z m-434 -160 c0 -56 -3 -71 -15 -71 -12 0
-15 -13 -15 -56 0 -30 5 -64 10 -75 8 -14 7 -19 -2 -19 -26 0 -88 -54 -107
-93 l-21 -42 0 101 c0 96 1 101 24 113 13 8 26 24 29 38 l4 24 -138 -2 c-77
-1 -139 -6 -139 -10 0 -5 20 -6 45 -3 40 4 45 3 45 -15 0 -12 9 -26 20 -33 16
-11 20 -23 20 -73 0 -58 -1 -59 -18 -39 -31 38 -81 65 -131 71 -110 13 -196
-23 -248 -105 l-28 -46 -3 75 c-3 69 -1 75 22 94 27 22 38 78 14 70 -7 -2 -76
-6 -153 -9 -248 -11 -885 -74 -1172 -116 -220 -33 -595 -132 -742 -196 -30
-14 -55 -23 -56 -22 -1 2 -5 22 -8 46 -5 41 -4 43 36 67 97 56 395 155 629
209 206 47 646 106 1028 136 140 11 279 22 309 25 30 3 127 8 215 11 89 4 162
8 164 9 1 1 88 3 192 4 l190 2 0 -70z m85 40 l50 -22 -3 -54 c-4 -50 -6 -54
-30 -57 -25 -3 -27 -7 -30 -52 -3 -48 -3 -48 -34 -42 -17 3 -37 6 -44 6 -10 0
-14 13 -14 45 l0 45 48 2 c36 1 39 2 15 5 l-33 4 0 76 c0 56 3 74 13 70 6 -3
35 -15 62 -26z m-2285 -71 c0 -22 -4 -40 -10 -40 -11 0 -14 63 -3 73 11 12 13
8 13 -33z m-240 -69 c0 -17 -4 -33 -10 -36 -6 -4 -10 8 -10 29 0 20 5 36 10
36 6 0 10 -13 10 -29z m2330 -5 c0 -7 -11 -21 -25 -30 l-25 -16 0 -300 0 -299
-30 -21 c-29 -20 -30 -25 -30 -96 l0 -74 -35 0 -35 0 0 73 c0 70 1 73 30 89
l30 17 0 305 c0 295 -1 306 -20 318 -11 7 -20 21 -20 30 0 16 10 18 80 18 61
0 80 -3 80 -14z m1270 -23 c0 -14 6 -23 15 -23 8 0 23 -8 33 -17 16 -17 17
-44 14 -325 l-2 -308 -30 0 c-16 0 -32 5 -35 10 -3 6 -28 10 -56 10 -38 0 -49
4 -49 16 0 8 -13 28 -28 44 l-28 28 59 6 c33 3 75 6 94 6 l34 0 -1 133 c-2
147 -10 192 -42 232 -59 76 -206 87 -277 22 -32 -31 -67 -113 -70 -167 -1 -25
-2 -52 -3 -60 -1 -8 0 -50 0 -92 l2 -78 59 0 59 0 -29 -29 c-16 -16 -29 -37
-29 -45 0 -13 -12 -16 -55 -16 l-55 0 0 341 0 341 210 -3 210 -3 0 -23z m190
1 c0 -8 -8 -14 -17 -14 -38 0 -43 -41 -43 -357 l0 -303 -28 0 -28 0 4 310 c4
279 3 310 -12 316 -9 3 -16 12 -16 20 0 8 -9 14 -20 14 -12 0 -20 7 -20 18 0
15 10 17 90 14 70 -3 90 -7 90 -18z m-1980 2 c0 -8 -11 -23 -25 -34 l-25 -20
0 -289 0 -289 -30 -29 c-27 -26 -30 -35 -30 -92 l0 -63 -35 0 -35 0 0 61 c0
55 3 63 30 86 l30 25 0 297 0 298 -25 11 c-15 7 -25 20 -25 32 0 18 6 20 85
20 67 0 85 -3 85 -14z m-180 -14 c0 -11 11 -24 25 -30 24 -11 25 -16 25 -89
l0 -78 -19 31 c-43 71 -140 102 -227 74 -46 -15 -101 -63 -120 -105 -12 -28
-13 -26 -14 47 0 70 2 78 25 96 14 11 25 27 25 36 0 23 40 29 218 34 54 2 62
0 62 -16z m-1838 -32 c-2 -22 -8 -43 -13 -46 -10 -6 -12 69 -2 79 14 15 18 5
15 -33z m1548 16 c0 -8 -11 -23 -25 -34 l-25 -20 0 -284 c0 -272 -1 -286 -20
-303 -16 -14 -20 -31 -20 -82 l0 -63 -35 0 -35 0 0 53 c0 44 4 58 25 77 l25
23 0 288 0 288 -27 28 -28 28 45 6 c86 11 120 10 120 -5z m3477 -8 c25 -20 14
-38 -22 -38 -33 0 -35 -2 -35 -31 l0 -31 -57 7 c-32 4 -59 8 -61 10 -6 5 26
61 42 74 35 30 103 34 133 9z m-5060 -40 c-2 -13 -4 -5 -4 17 -1 22 1 32 4 23
2 -10 2 -28 0 -40z m1442 3 c19 -11 20 -22 21 -300 l0 -288 -25 -17 c-22 -15
-25 -23 -25 -76 l0 -60 -130 0 -130 0 0 275 c0 313 4 331 80 381 35 23 47 26
100 22 49 -4 66 -10 91 -34 18 -16 30 -22 27 -14 -2 8 -19 25 -38 38 -74 50
-207 15 -248 -64 l-18 -36 4 64 c3 45 9 67 22 78 10 8 20 24 22 35 3 18 15 21
108 30 95 9 106 8 112 -7 4 -9 16 -21 27 -27z m2601 29 c0 -15 147 -567 165
-617 3 -10 -17 -13 -80 -13 l-85 0 0 204 c0 123 4 207 10 211 6 4 5 13 -2 25
-10 15 -10 27 0 52 l12 33 -20 -25 c-21 -26 -25 -50 -12 -65 4 -6 6 -106 4
-222 l-3 -213 -24 0 -25 0 0 310 c0 200 4 310 10 310 6 0 10 7 10 15 0 8 9 15
20 15 13 0 20 -7 20 -20z m-2860 -23 c0 -8 -11 -24 -25 -37 l-25 -23 1 -276
c0 -264 -1 -276 -20 -291 -15 -11 -21 -29 -23 -70 -3 -48 -6 -55 -25 -58 -22
-3 -23 0 -23 53 0 49 4 60 25 77 l25 19 0 274 c0 253 -1 275 -18 287 -10 7
-21 21 -25 30 -5 13 1 18 26 21 73 9 107 7 107 -6z m-150 -11 c0 -8 10 -22 21
-30 17 -11 22 -26 23 -63 l1 -49 -34 23 c-39 27 -107 31 -149 9 -30 -16 -66
-53 -75 -76 -3 -8 -6 12 -6 46 -1 49 3 64 19 79 11 10 20 26 20 35 0 14 15 19
83 27 45 6 85 11 90 12 4 0 7 -5 7 -13z m1315 -5 c23 -10 53 -33 68 -50 l27
-33 0 -232 0 -232 -30 -17 c-29 -18 -30 -20 -30 -93 l0 -74 -185 0 -185 0 0
289 c0 288 0 289 25 332 32 58 74 97 121 114 55 20 141 18 189 -4z m401 9 c8
0 14 -4 14 -9 0 -4 56 -129 125 -276 69 -147 125 -269 125 -272 0 -2 -21 -3
-46 -1 l-46 3 -124 279 c-68 153 -124 281 -124 284 0 2 14 2 31 -2 17 -3 38
-6 45 -6z m-1925 -56 c-20 -15 -21 -23 -21 -283 0 -255 -1 -269 -20 -286 -15
-14 -20 -31 -20 -70 0 -48 -2 -53 -25 -57 -24 -5 -25 -3 -25 47 0 39 5 56 20
70 19 17 20 31 20 286 0 258 -1 269 -20 279 -38 20 -23 37 43 46 49 7 63 6 65
-4 2 -8 -6 -20 -17 -28z m1014 1 c29 -17 49 -38 64 -70 19 -41 21 -62 21 -243
l0 -198 -30 -22 c-28 -21 -30 -27 -30 -87 l0 -65 -160 0 -160 0 0 275 c0 271
0 276 24 323 29 57 53 80 103 98 60 21 120 17 168 -11z m848 6 c3 -13 -3 -22
-19 -30 -33 -14 -69 -88 -53 -107 8 -10 8 -14 0 -14 -8 0 -11 -56 -11 -190 l0
-190 58 2 57 2 -52 3 -53 4 0 178 c0 128 3 180 12 189 10 10 10 15 -1 21 -11
7 -10 14 3 40 18 34 67 72 73 56 2 -6 50 -113 107 -240 l103 -230 -26 -3 c-14
-2 -29 -7 -33 -10 -4 -4 67 -6 157 -4 l165 3 0 -86 0 -85 -320 0 -320 0 0 279
c0 251 2 284 19 323 33 77 121 136 134 89z m-1983 -6 c0 -8 9 -19 19 -25 18
-9 19 -24 20 -268 1 -247 0 -259 -19 -277 -15 -14 -20 -31 -20 -74 l0 -56 -91
-2 -90 -2 3 265 3 266 39 35 c35 32 42 35 84 30 31 -3 52 -12 64 -27 10 -12
18 -18 18 -12 0 6 -12 20 -26 31 -50 40 -137 19 -173 -40 l-18 -30 5 53 c3 32
12 61 23 74 11 11 19 28 19 37 0 9 10 19 23 21 12 3 31 7 42 9 45 10 75 7 75
-8z m-174 -54 l-26 -27 0 -245 c0 -233 -1 -245 -20 -257 -16 -10 -20 -23 -20
-67 0 -42 -3 -55 -15 -55 -24 0 -20 92 5 115 19 17 20 31 20 265 0 210 -2 249
-15 260 -9 7 -14 18 -12 24 4 13 101 34 106 23 2 -5 -9 -21 -23 -36z m-96 5
c0 -7 7 -19 15 -26 9 -7 15 -29 15 -51 l0 -38 -27 15 c-58 30 -141 5 -163 -50
-7 -16 -9 -10 -9 26 -1 26 4 50 9 53 6 3 10 15 10 25 0 15 13 23 58 35 31 9
62 18 67 20 20 7 25 5 25 -9z m5685 -296 l7 -300 34 0 35 0 -3 -142 c-3 -142
-3 -142 -28 -149 l-25 -7 28 -1 c24 -1 27 -4 27 -38 0 -35 -2 -38 -30 -38
l-30 0 0 183 0 182 -25 0 -24 0 -3 163 c-5 283 1 447 16 447 11 0 15 -58 21
-300z m-5084 267 l34 -23 3 -223 c2 -215 2 -224 -18 -238 -16 -11 -20 -25 -20
-74 l0 -59 -110 0 -110 0 0 255 c0 285 3 299 64 353 46 40 105 44 157 9z
m-770 -36 c-7 -12 -11 -105 -11 -245 0 -215 -1 -226 -20 -238 -15 -10 -20 -24
-20 -59 0 -32 -5 -49 -15 -53 -12 -4 -15 4 -15 42 0 27 6 54 13 61 10 10 9 11
-5 6 -14 -6 -18 -19 -18 -60 l0 -53 -71 -4 -70 -3 1 250 c1 138 4 266 7 286 5
35 7 37 74 57 52 15 69 17 69 7 0 -7 7 -15 15 -19 9 -3 15 -18 15 -36 0 -30
-1 -31 -22 -16 -12 9 -36 16 -53 16 -34 0 -95 -33 -95 -52 0 -6 11 -2 24 11
13 12 39 24 59 28 29 4 40 1 62 -21 l26 -26 -3 -180 c-2 -99 0 -180 5 -180 4
0 7 103 7 229 0 200 -2 230 -16 235 -24 9 -12 28 27 41 37 13 46 7 30 -24z
m5961 -98 c5 -204 -2 -433 -13 -433 -5 0 -9 110 -9 280 0 174 4 280 10 280 5
0 11 -54 12 -127z m-2447 87 c4 -16 4 -39 0 -50 -4 -12 -2 -27 5 -35 6 -7 10
-33 8 -57 l-3 -43 -117 -3 -118 -3 0 31 c0 28 -3 30 -35 30 l-35 0 4 53 c2 29
8 63 15 75 12 23 36 26 193 30 l76 2 7 -30z m-3341 -41 l26 -20 0 -191 0 -190
-25 -20 c-21 -16 -25 -28 -25 -69 l0 -49 -75 0 -75 0 0 225 c0 246 5 274 55
313 35 28 85 28 119 1z m-412 -211 c-3 -216 -3 -224 -25 -242 -17 -14 -21 -27
-20 -62 2 -33 -1 -44 -12 -44 -11 0 -15 12 -15 45 0 34 5 47 20 55 20 11 21
19 18 213 -2 111 -7 209 -11 218 -6 11 -1 19 15 27 13 6 25 11 28 11 3 1 4
-99 2 -221z m-54 167 c17 -36 15 -45 -8 -45 -19 0 -20 -7 -20 -169 0 -94 -3
-172 -7 -174 -8 -5 -6 378 2 401 7 19 21 14 33 -13z m3721 -261 c17 -14 31
-34 31 -45 0 -16 7 -19 50 -19 l50 0 0 -170 0 -170 -190 0 -190 0 0 170 0 170
50 0 c45 0 50 2 56 25 8 33 50 65 85 65 15 0 41 -12 58 -26z m-489 -134 c0
-47 -4 -80 -10 -80 -6 0 -10 33 -10 80 0 47 4 80 10 80 6 0 10 -33 10 -80z
m222 -115 l3 -165 190 -1 c105 -1 198 -1 207 0 16 1 18 15 15 166 l-2 165 338
0 c330 0 339 0 344 -20 4 -16 14 -20 49 -20 l44 0 0 -200 0 -200 -675 0 -675
0 0 35 c0 22 -6 38 -15 41 -11 5 -15 22 -15 70 0 36 4 64 10 64 17 0 12 90 -5
96 -11 5 -15 22 -15 70 l0 64 100 0 100 0 2 -165z m-3482 50 c0 -48 -2 -55
-20 -55 -16 0 -20 7 -20 37 0 29 20 68 38 72 1 1 2 -24 2 -54z m6330 -110 c0
-111 -3 -135 -14 -135 -12 0 -15 25 -18 135 -3 123 -1 135 15 135 15 0 17 -13
17 -135z m-201 -68 l-1 -194 -24 5 c-13 2 -31 -1 -39 -8 -13 -11 -15 -6 -15
34 0 45 1 46 33 48 l32 1 -32 4 -33 4 0 150 0 149 40 0 40 0 -1 -193z m152
-23 c-2 -115 -7 -213 -12 -218 -5 -6 -9 81 -9 213 0 174 3 222 13 218 9 -3 11
-52 8 -213z m-1361 -89 c0 -228 -3 -295 -12 -297 -7 -1 -32 -2 -55 -2 l-43 -1
0 298 0 297 55 0 55 0 0 -295z m402 11 l3 -285 -29 -5 c-72 -15 -66 -38 -66
284 l0 290 45 0 44 0 3 -284z m520 29 c3 -269 4 -265 -43 -265 -18 0 -19 10
-19 260 l0 260 30 0 29 0 3 -255z m198 15 c0 -139 -4 -240 -9 -240 -5 0 -16
-3 -25 -6 -14 -6 -16 20 -16 240 l0 246 25 0 25 0 0 -240z m138 18 c-3 -203
-5 -223 -20 -226 -17 -3 -18 13 -18 222 0 220 1 226 20 226 20 0 20 -5 18
-222z m-558 -52 c0 -285 2 -276 -53 -276 l-22 0 3 270 3 270 34 0 35 0 0 -264z
m-2350 210 l0 -34 -1597 -6 c-879 -3 -1624 -8 -1655 -12 -57 -6 -58 -5 -58 19
0 24 2 25 93 30 50 3 295 11 542 17 248 6 475 12 505 13 30 2 531 4 1113 5
l1057 2 0 -34z m30 -12 c0 -19 -4 -34 -10 -34 -6 0 -10 -30 -10 -70 0 -40 -4
-70 -10 -70 -6 0 -10 30 -10 70 0 40 4 70 10 70 6 0 10 18 10 41 0 24 4 38 10
34 6 -3 10 -22 10 -41z m-50 -103 l0 -69 -1587 -6 c-874 -3 -1612 -9 -1640
-12 l-53 -6 0 71 0 71 63 1 c34 1 157 5 272 9 116 3 825 7 1578 8 l1367 2 0
-69z m-2509 -98 c1 -17 2 -17 6 0 4 14 16 17 74 17 39 0 69 -4 69 -10 0 -5 -5
-10 -11 -10 -5 0 -17 -16 -25 -35 -11 -28 -14 -99 -14 -365 l0 -331 -22 3 -23
3 -5 340 c-4 259 -8 345 -18 360 l-14 20 8 -20 c5 -11 10 -172 12 -359 3 -277
1 -337 -10 -334 -10 4 -13 63 -14 293 l0 288 -28 23 c-36 32 -85 32 -115 0
-22 -24 -23 -27 -21 -295 0 -215 -2 -271 -12 -271 -10 0 -12 58 -10 285 l3
284 26 21 c35 28 111 28 147 -1 14 -11 26 -16 26 -11 0 15 -43 40 -81 47 -38
7 -77 -4 -102 -30 -16 -15 -17 -14 -17 14 0 45 37 79 91 84 24 2 52 4 62 5 10
1 17 -5 18 -15z m519 2 c0 -8 -8 -15 -18 -15 -36 0 -42 -59 -42 -424 l0 -346
-25 0 -25 0 0 348 c0 363 -6 422 -40 422 -10 0 -21 6 -23 13 -3 7 -6 5 -6 -5
-1 -11 6 -18 19 -18 14 0 22 -11 29 -37 18 -65 14 -80 -12 -42 -28 42 -87 65
-140 55 -47 -9 -101 -55 -114 -98 l-11 -33 -1 45 c-1 59 16 120 34 120 8 0 15
7 15 15 0 13 27 15 180 15 153 0 180 -2 180 -15z m210 -5 c0 -11 6 -20 14 -20
20 0 24 -9 32 -61 l6 -44 -24 27 c-33 37 -59 48 -118 48 -81 0 -160 -55 -160
-112 0 -7 8 3 18 22 9 19 33 45 52 58 30 20 45 23 97 20 72 -5 107 -29 124
-87 15 -54 8 -663 -8 -653 -9 6 -13 85 -13 314 -2 333 -5 357 -60 386 -41 21
-108 9 -143 -26 -36 -37 -36 -28 -36 -379 -1 -268 -1 -273 -21 -273 -20 0 -21
4 -19 351 0 205 5 364 11 380 6 18 17 29 29 29 12 0 19 7 19 20 0 19 7 20 100
20 93 0 100 -1 100 -20z m170 6 c0 -7 -8 -16 -18 -18 -37 -10 -44 -92 -37
-458 l7 -341 -29 3 -28 3 -5 380 c-3 209 -9 388 -14 398 -4 9 -14 17 -22 17
-8 0 -14 7 -14 15 0 12 16 15 80 15 61 0 80 -3 80 -14z m440 -1 c0 -8 -6 -15
-14 -15 -35 0 -40 -64 -37 -447 l3 -373 -31 0 -31 0 0 373 c0 407 -3 447 -30
447 -10 0 -21 6 -23 13 -3 7 -6 5 -6 -5 -1 -11 6 -18 18 -18 20 0 31 -39 31
-110 l0 -35 -18 34 c-27 55 -63 75 -142 79 -89 5 -139 -20 -182 -93 -29 -50
-29 -50 -24 -15 3 19 8 57 11 84 5 36 11 50 26 53 10 3 19 14 19 24 0 18 11
19 215 19 184 0 215 -2 215 -15z m360 -5 c0 -11 4 -20 9 -20 5 0 7 9 4 20 -5
19 0 20 86 20 74 0 91 -3 91 -15 0 -8 -8 -15 -19 -15 -35 0 -41 -67 -41 -464
l0 -376 -35 0 -34 0 -3 405 c-2 303 -6 407 -15 416 -10 10 -11 6 -3 -22 6 -18
10 -61 10 -93 l0 -60 -27 55 c-37 71 -105 109 -197 109 -100 -1 -167 -43 -214
-135 l-21 -40 6 75 c7 88 17 120 38 120 8 0 15 9 15 20 0 19 7 20 175 20 168
0 175 -1 175 -20z m637 0 c3 -11 11 -20 18 -20 19 0 25 -24 25 -103 l-1 -72
-17 31 c-9 16 -24 40 -33 52 -21 29 -99 72 -129 71 -19 0 -14 -4 18 -14 63
-19 111 -61 138 -119 23 -50 24 -55 24 -368 l0 -318 -30 0 -30 0 0 284 c0 218
-3 286 -12 290 -10 5 -10 7 0 12 33 16 4 101 -49 142 -79 63 -245 46 -310 -31
-29 -34 -45 -93 -30 -111 8 -10 9 -16 1 -21 -6 -4 -10 -101 -10 -286 l0 -279
-35 0 -35 0 0 306 0 305 26 54 c30 65 87 116 152 138 26 9 38 16 26 16 -30 1
-115 -45 -142 -77 -13 -15 -32 -45 -43 -67 l-19 -40 0 65 c0 88 15 140 40 140
13 0 20 7 20 20 0 19 7 20 216 20 207 0 216 -1 221 -20z m203 -33 c0 -46 21
-101 156 -417 86 -201 160 -375 165 -387 l9 -23 -201 0 -200 0 3 411 c3 397 4
411 23 426 20 15 20 15 0 11 -13 -2 -22 -14 -26 -33 -4 -17 -7 -207 -8 -422
l-1 -393 -35 0 -35 0 0 403 c0 221 -3 412 -6 425 -4 12 -13 22 -20 22 -8 0
-14 7 -14 15 0 12 17 15 95 15 l95 0 0 -53z m30 -5 c0 -35 15 -81 57 -180 31
-72 58 -130 61 -128 2 2 -21 64 -52 137 -31 72 -56 136 -56 140 0 5 160 9 355
9 317 0 389 -5 342 -23 -7 -2 -20 -29 -30 -59 -14 -44 -17 -93 -17 -246 l0
-192 -25 0 -25 0 0 206 c0 225 -9 289 -43 298 -12 3 -23 3 -26 0 -3 -3 4 -7
16 -10 35 -9 43 -65 43 -288 l0 -206 -35 0 -35 0 -1 143 c-1 78 -1 146 0 151
5 24 -34 98 -64 125 -73 64 -199 66 -267 4 -29 -26 -59 -89 -64 -136 -3 -23
-7 -48 -9 -55 -3 -7 41 -120 96 -250 114 -270 107 -249 95 -252 -5 -1 -83 171
-173 382 -142 334 -163 390 -163 436 0 33 4 51 10 47 6 -3 10 -27 10 -53z
m3020 20 c0 -28 -4 -39 -15 -39 -11 0 -15 11 -15 39 0 27 4 38 15 38 11 0 15
-11 15 -38z m-6120 17 c0 -6 7 -17 15 -25 22 -22 19 -37 -4 -24 -29 15 -84 12
-110 -7 -30 -20 -21 -2 18 39 26 27 81 39 81 17z m130 1 c0 -5 -4 -10 -9 -10
-23 0 -30 -71 -33 -327 -2 -150 -7 -273 -11 -273 -5 0 -17 5 -28 10 -18 10
-19 22 -17 203 l2 192 6 -195 6 -195 2 263 c2 241 0 266 -17 302 l-19 40 59 0
c33 0 59 -4 59 -10z m120 -10 c11 -11 23 -32 26 -47 7 -27 6 -27 -12 -11 -32
27 -84 31 -126 10 -21 -11 -38 -18 -38 -16 0 12 25 54 32 54 4 0 8 7 8 15 0
24 85 20 110 -5z m128 9 c-32 -18 -38 -79 -38 -380 l0 -296 -25 5 -25 4 0 309
c0 295 -6 369 -30 354 -5 -3 -10 -1 -10 4 0 7 28 11 73 11 53 -1 67 -3 55 -11z
m-483 -25 l-25 -27 0 -243 c0 -212 -2 -243 -15 -238 -13 5 -15 41 -15 241 l0
235 -27 22 c-15 11 -34 24 -42 28 -9 4 21 7 66 7 l82 1 -24 -26z m115 -39 c11
-13 15 -13 23 -3 6 9 7 8 3 -5 -3 -10 -6 -26 -6 -34 0 -11 -7 -7 -21 11 -23
29 -63 35 -95 12 -18 -13 -19 -32 -24 -243 l-6 -228 -2 229 c-2 224 -1 230 20
253 26 27 88 32 108 8z m857 -10 c14 -9 33 -35 44 -58 17 -38 19 -69 19 -339
0 -297 0 -298 -21 -298 l-21 0 4 293 c3 160 1 307 -4 325 -5 18 -20 39 -33 48
-28 18 -93 21 -123 5 -49 -26 -52 -50 -52 -356 0 -278 0 -285 -20 -285 -19 0
-20 7 -20 258 0 323 12 375 93 413 47 22 94 20 134 -6z m1281 9 c54 -22 89
-60 112 -121 18 -49 20 -78 20 -358 l0 -305 -25 0 -25 0 0 284 c0 175 -4 287
-10 291 -6 4 -5 13 2 25 17 27 -21 103 -64 131 -47 29 -159 24 -206 -9 -44
-32 -78 -99 -63 -124 7 -11 7 -18 1 -18 -6 0 -10 -100 -10 -285 l0 -285 -25 0
-25 0 0 308 c0 276 2 311 19 347 22 49 72 101 115 120 42 18 139 18 184 -1z
m-1891 -16 c23 -21 23 -22 23 -301 0 -154 -2 -278 -5 -276 -2 3 -5 123 -5 266
-1 247 -2 263 -21 287 -13 17 -30 26 -49 26 -83 0 -88 -18 -90 -300 0 -129 -3
-236 -5 -239 -3 -2 -5 113 -5 257 l0 261 26 20 c36 29 100 28 131 -1z m1413 4
c19 -11 43 -36 54 -58 20 -37 21 -59 24 -366 l3 -328 -25 0 -25 0 -3 296 c-2
162 0 298 4 302 13 13 -13 84 -39 108 -37 34 -129 36 -173 5 -27 -19 -60 -76
-58 -101 0 -8 0 -144 -1 -302 -1 -281 -1 -288 -21 -288 -20 0 -20 7 -20 300 0
316 3 343 48 394 52 58 160 76 232 38z m2613 -2 c3 -11 12 -20 20 -20 22 0 27
-45 27 -266 0 -129 4 -204 10 -204 14 0 13 369 -1 426 -7 25 -20 51 -30 57
-33 21 -21 27 51 27 63 0 91 -11 58 -22 -10 -4 -14 -65 -16 -251 l-4 -247 -69
0 -69 0 -1 143 c-1 78 -1 146 0 151 5 24 -34 98 -64 125 -98 85 -256 57 -310
-54 -22 -47 -23 -64 -24 -227 l-1 -138 -40 0 -40 0 0 206 c0 209 10 284 37
284 7 0 13 7 13 15 0 13 32 15 224 15 215 0 224 -1 229 -20z m1037 -59 l0 -69
-29 29 c-43 42 -89 40 -130 -6 l-31 -36 0 69 c0 38 2 71 4 73 3 2 45 5 95 7
l91 3 0 -70z m-310 -19 l0 -79 -35 33 c-74 70 -185 51 -242 -42 -10 -16 -12
-4 -12 68 l-1 87 93 3 c50 2 116 4 145 6 l52 3 0 -79z m-420 -30 l0 -87 -18
34 c-21 42 -58 71 -103 80 -27 5 -35 13 -39 36 l-7 30 84 -3 83 -3 0 -87z
m-4553 36 c-3 -8 -6 -5 -6 6 -1 11 2 17 5 13 3 -3 4 -12 1 -19z m4569 -375
l24 -53 -85 0 -85 0 -2 173 -2 172 -3 -172 c-3 -165 -4 -173 -23 -173 -19 0
-20 7 -19 223 l0 222 86 -170 c47 -93 96 -194 109 -222z m1474 256 c-3 -77 -9
-114 -17 -117 -10 -3 -13 24 -13 111 0 83 3 117 13 120 6 2 14 3 17 2 3 -2 3
-54 0 -116z m-100 -34 c0 -116 -1 -125 -21 -135 -11 -7 -22 -10 -24 -8 -7 7
-7 246 -1 257 4 6 16 11 27 11 18 0 19 -8 19 -125z m-144 79 c-3 -9 -6 -71 -6
-139 l0 -123 -26 -6 c-15 -4 -28 -5 -30 -4 -1 2 -4 64 -5 138 -1 134 -1 135
22 141 41 12 52 10 45 -7z m-191 -35 c-4 -6 -6 -69 -6 -140 l2 -129 -26 -10
c-15 -6 -31 -10 -36 -10 -5 0 -9 64 -9 150 l0 150 41 0 c26 0 38 -4 34 -11z
m-235 -168 c0 -161 0 -161 -57 -161 l-25 0 4 155 3 155 38 0 37 0 0 -149z
m-288 -37 l-3 -152 -47 -5 c-26 -3 -48 -4 -49 -3 -1 1 -3 71 -4 156 l-1 155
48 5 c27 3 51 3 54 0 3 -3 4 -73 2 -156z m-402 -21 c-6 -198 -15 -205 -83 -68
-41 84 -47 103 -47 160 l0 65 68 0 67 0 -5 -157z m-1020 -168 l0 -65 -35 0
-35 0 0 65 0 65 35 0 35 0 0 -65z m160 0 l0 -65 -75 0 -75 0 0 65 0 65 75 0
75 0 0 -65z m540 0 l0 -65 -70 0 -70 0 0 65 0 65 70 0 70 0 0 -65z m50 0 c0
-58 -2 -65 -20 -65 -18 0 -20 7 -20 65 0 58 2 65 20 65 18 0 20 -7 20 -65z
m218 6 c17 -33 32 -62 32 -65 0 -3 -54 -6 -120 -6 l-120 0 0 65 0 65 88 0 87
0 33 -59z"/>
<path d="M2990 4610 c0 -173 4 -270 10 -270 6 0 10 97 10 270 0 173 -4 270
-10 270 -6 0 -10 -97 -10 -270z"/>
<path d="M3063 4678 c-38 -10 -38 -11 -16 -49 14 -23 22 -27 42 -22 38 9 41
12 41 42 0 33 -19 42 -67 29z m35 -33 c10 -22 9 -25 -7 -25 -22 0 -45 25 -36
40 11 18 31 11 43 -15z"/>
<path d="M2833 4628 c-38 -10 -38 -11 -16 -49 14 -23 22 -27 42 -22 38 9 41
12 41 42 0 33 -19 42 -67 29z m35 -33 c10 -22 9 -25 -7 -25 -10 0 -24 7 -32
16 -10 13 -10 17 2 25 21 13 25 11 37 -16z"/>
<path d="M2693 4603 c-28 -5 -29 -20 -4 -52 15 -19 23 -22 50 -16 29 6 32 10
29 38 -3 34 -22 41 -75 30z m40 -57 c-12 -6 -20 -3 -30 10 -17 24 -16 32 5 36
9 2 22 -5 29 -17 9 -16 8 -22 -4 -29z"/>
<path d="M2578 4573 c-55 -8 -23 -77 34 -71 30 3 33 6 33 36 0 17 -3 32 -7 32
-3 0 -12 2 -20 3 -7 2 -25 2 -40 0z m36 -29 c10 -26 7 -34 -12 -34 -18 0 -45
34 -35 44 12 12 41 6 47 -10z"/>
<path d="M2291 4461 c-22 -14 16 -64 43 -57 12 3 24 6 29 6 4 0 7 14 7 30 0
27 -3 30 -32 30 -18 0 -39 -4 -47 -9z m43 -39 c-24 -6 -43 16 -24 28 11 7 19
5 28 -8 11 -14 10 -18 -4 -20z"/>
<path d="M1628 4083 c-22 -5 -23 -17 -3 -33 20 -16 45 -5 45 20 0 20 -8 22
-42 13z m17 -23 c3 -5 1 -10 -4 -10 -6 0 -11 5 -11 10 0 6 2 10 4 10 3 0 8 -4
11 -10z"/>
<path d="M3600 4045 c0 -14 5 -25 10 -25 6 0 10 11 10 25 0 14 -4 25 -10 25
-5 0 -10 -11 -10 -25z"/>
<path d="M3155 3730 c-17 -5 -43 -22 -58 -38 -31 -32 -53 -92 -34 -92 8 0 8
-3 -1 -12 -8 -8 -12 -60 -12 -170 0 -157 0 -158 23 -157 12 0 76 6 142 12
l120 12 2 180 c2 161 0 183 -17 210 -10 16 -28 36 -39 42 -28 18 -90 24 -126
13z m126 -30 c29 -16 51 -64 36 -79 -9 -9 -9 -14 1 -20 9 -6 12 -44 10 -157
l-3 -149 -57 -3 -56 -3 -13 36 c-7 19 -20 35 -29 35 -13 0 -13 2 0 10 12 7 12
14 2 43 -7 19 -11 79 -11 142 1 99 3 110 25 132 25 24 63 30 95 13z"/>
<path d="M4162 3175 c0 -16 2 -22 5 -12 2 9 2 23 0 30 -3 6 -5 -1 -5 -18z"/>
<path d="M2772 3670 c-44 -10 -68 -34 -88 -87 -14 -35 -15 -49 -6 -64 7 -11 8
-20 2 -24 -6 -4 -10 -66 -10 -147 l0 -140 23 5 c12 3 63 11 114 18 l92 12 3
144 c2 80 0 147 -3 149 -4 2 -4 14 -2 27 7 34 -22 84 -57 102 -16 8 -30 15
-32 14 -2 -1 -18 -5 -36 -9z m89 -49 c30 -31 38 -65 17 -75 -10 -5 -10 -7 0
-12 9 -4 12 -43 12 -143 l0 -137 -70 -10 -70 -10 0 53 c0 29 5 53 10 53 6 0
10 22 10 49 0 28 -4 53 -10 56 -13 8 -13 55 0 55 6 0 6 7 -1 18 -18 28 -3 88
28 112 34 26 39 26 74 -9z"/>
<path d="M5962 3249 l3 -133 27 -7 c15 -4 57 -9 93 -11 l66 -3 0 134 c0 73 -1
134 -3 136 -2 1 -45 5 -96 9 l-93 7 3 -132z m96 75 l52 -7 0 -103 0 -104 -27
0 c-16 0 -45 3 -65 6 l-37 6 -3 104 c-3 116 -10 108 80 98z"/>
<path d="M6799 3266 c-2 -2 -3 -55 -1 -118 l3 -113 70 -16 69 -16 0 118 0 117
-52 12 c-29 6 -60 14 -69 16 -8 2 -17 2 -20 0z m74 -73 c4 -2 7 -40 7 -85 0
-78 -1 -80 -22 -74 -13 3 -29 6 -35 6 -10 0 -13 24 -13 85 l0 85 28 -6 c15 -4
30 -9 35 -11z"/>
<path d="M7290 3042 l0 -110 47 -16 c26 -9 50 -16 55 -16 4 0 8 47 8 106 l0
105 -32 13 c-84 34 -78 41 -78 -82z m34 42 c13 -5 16 -22 16 -81 0 -64 -2 -74
-16 -69 -9 3 -18 6 -20 6 -2 0 -4 34 -4 75 0 41 2 75 4 75 2 0 11 -3 20 -6z"/>
<path d="M7610 2925 c0 -83 1 -86 26 -95 14 -6 27 -10 30 -10 2 0 4 36 4 80 0
78 0 80 -30 95 l-30 16 0 -86z"/>
<path d="M7008 2923 c7 -3 16 -2 19 1 4 3 -2 6 -13 5 -11 0 -14 -3 -6 -6z"/>
<path d="M7024 2790 c0 -69 1 -97 3 -62 2 34 2 90 0 125 -2 34 -3 6 -3 -63z"/>
<path d="M7200 2869 c0 -7 3 -10 6 -6 3 3 17 2 30 -3 15 -6 24 -6 24 0 0 6 -6
10 -14 10 -8 0 -21 3 -30 6 -10 4 -16 1 -16 -7z"/>
<path d="M7388 2713 c-2 -60 0 -115 4 -123 4 -8 8 38 8 104 l0 118 28 -6 c20
-5 23 -4 12 4 -8 5 -23 10 -32 10 -14 0 -17 -15 -20 -107z"/>
<path d="M6421 2718 c-75 -39 -79 -54 -80 -324 l-2 -234 151 0 150 0 2 208 c0
114 0 220 -1 237 -9 105 -123 164 -220 113z"/>
<path d="M7045 2670 c-16 -16 -24 -30 -18 -30 6 0 18 11 27 26 15 21 23 25 59
22 35 -2 45 -9 62 -35 11 -18 24 -32 29 -33 11 0 -22 51 -43 67 -31 24 -85 16
-116 -17z"/>
<path d="M7195 2691 c-3 -5 -2 -12 3 -15 5 -3 9 1 9 9 0 17 -3 19 -12 6z"/>
<path d="M7270 2635 c-13 -14 -19 -25 -13 -25 5 0 18 9 28 20 22 24 52 26 77
3 10 -9 18 -11 18 -5 0 15 -33 32 -63 32 -13 0 -34 -11 -47 -25z"/>
<path d="M7287 2592 c-29 -32 -35 -74 -37 -256 l-1 -176 71 0 71 0 -3 194 c-3
179 -5 197 -24 223 -26 34 -55 40 -77 15z"/>
<path d="M7298 1823 c12 -2 32 -2 45 0 12 2 2 4 -23 4 -25 0 -35 -2 -22 -4z"/>
<path d="M7050 1802 c0 -4 21 -6 48 -4 75 5 82 10 15 11 -35 0 -63 -2 -63 -7z"/>
<path d="M4800 2608 c0 -188 3 -338 7 -334 10 10 10 676 1 676 -5 0 -8 -154
-8 -342z"/>
<path d="M4070 2980 c0 -4 7 -7 15 -6 23 3 26 12 5 13 -11 1 -20 -2 -20 -7z"/>
<path d="M3653 2972 c-62 -1 -113 -6 -113 -10 0 -7 221 -3 229 4 9 8 -7 9
-116 6z"/>
<path d="M2722 2745 c-53 -23 -60 -54 -62 -278 l-1 -197 121 0 120 0 0 174 c0
96 -4 177 -8 180 -5 3 -7 18 -4 34 6 45 -48 102 -97 102 -20 -1 -51 -7 -69
-15z m144 -40 c10 -15 14 -34 10 -49 -3 -14 -2 -27 3 -30 5 -3 9 -82 10 -176
l2 -170 -55 0 -56 0 0 163 c0 113 4 167 12 175 9 9 9 15 0 24 -17 17 -15 32 9
62 26 33 44 33 65 1z"/>
<path d="M3631 2802 c-19 -9 -44 -30 -55 -45 -20 -27 -21 -42 -21 -250 l0
-222 78 -1 77 -1 0 186 c0 121 4 191 11 198 8 8 7 16 -2 31 -16 26 1 63 38 83
30 16 50 6 77 -40 15 -26 16 -34 5 -47 -10 -13 -10 -17 0 -24 10 -6 12 -46 9
-183 -2 -96 0 -173 4 -171 3 2 7 85 8 183 0 138 -2 180 -12 184 -10 4 -10 6 0
6 30 2 -8 83 -53 111 -41 25 -117 26 -164 2z"/>
<path d="M3726 2289 c5 -9 104 -8 104 0 0 4 -24 6 -54 6 -30 0 -53 -3 -50 -6z"/>
<path d="M3840 2289 c0 -5 5 -7 10 -4 6 3 10 8 10 11 0 2 -4 4 -10 4 -5 0 -10
-5 -10 -11z"/>
<path d="M3145 2777 c-47 -22 -69 -53 -70 -98 0 -21 -3 -39 -7 -39 -5 0 -8
-81 -8 -180 l0 -180 135 0 136 0 -2 203 c-1 211 -7 245 -47 281 -27 24 -98 30
-137 13z m145 -42 c17 -18 21 -31 17 -55 -4 -17 -2 -30 3 -30 6 0 10 -70 10
-180 l0 -180 -60 0 -60 0 0 174 c0 111 4 177 10 181 8 5 7 11 -1 21 -19 24 18
92 52 94 3 0 16 -11 29 -25z"/>
<path d="M2073 2670 c-29 -12 -57 -55 -50 -80 3 -11 2 -22 -1 -24 -4 -2 -6
-77 -4 -166 l3 -162 82 4 c53 3 81 8 80 15 -1 6 -3 91 -3 189 -1 98 -6 186
-11 195 -6 13 -65 43 -73 38 -1 0 -11 -4 -23 -9z"/>
<path d="M2400 2710 c-40 -8 -67 -33 -78 -71 -5 -19 -10 -115 -11 -212 l-2
-177 68 0 c37 0 85 3 106 6 l38 7 -1 193 c-1 190 -2 195 -26 223 -25 31 -54
40 -94 31z m97 -53 c6 -13 11 -104 12 -205 l2 -182 -41 0 -40 0 0 151 c0 133
2 153 18 165 13 10 14 15 5 24 -8 9 -8 20 -1 41 12 35 31 37 45 6z"/>
<path d="M1544 2576 c-17 -13 -19 -30 -22 -196 l-3 -181 63 6 c97 10 91 -3 82
152 -4 76 -8 147 -9 158 -1 11 -3 25 -4 32 -4 39 -69 56 -107 29z"/>
<path d="M1787 2615 c-13 -14 -27 -37 -30 -50 -8 -44 -8 -333 0 -338 4 -3 41
-2 81 0 l73 6 -1 180 c-1 175 -2 180 -25 203 -31 31 -66 30 -98 -1z"/>
<path d="M5097 2311 c4 -15 -1 -20 -19 -23 -25 -3 -23 -22 2 -23 11 0 15 -12
15 -48 0 -61 13 -61 17 1 3 40 6 47 26 50 26 4 20 22 -9 22 -12 0 -19 7 -19
20 0 11 -4 20 -9 20 -5 0 -7 -9 -4 -19z"/>
<path d="M4243 1823 c15 -2 39 -2 55 0 15 2 2 4 -28 4 -30 0 -43 -2 -27 -4z"/>
<path d="M5380 1205 c0 -30 5 -55 10 -55 6 0 10 25 10 55 0 30 -4 55 -10 55
-5 0 -10 -25 -10 -55z"/>
<path d="M5950 1205 c0 -30 5 -55 10 -55 6 0 10 25 10 55 0 30 -4 55 -10 55
-5 0 -10 -25 -10 -55z"/>
</g>
</svg>
